<?xml version"1.0"?>
<svg id="Calque_1" data-name="Calque 1" xmlns="http://www.w3.org/2000/svg" viewBox="0 0 432 432">
  <defs>
  <style>.cls-1{fill:#1a1a1a;}.cls-2{fill:#c79960;}.cls-3{fill:#88525a;}
  </style>
  </defs>
  <title>14_100_REDO_February_2017_LoveSVG
  </title>
  <path class="cls-1" d="M143.9,202.18h3.5a2.23,2.23,0,0,1,.89,0,.83.83,0,0,1,.4,1.45,1.45,1.45,0,0,1-.89.52,3,3,0,0,1-.84.12,80.55,80.55,0,0,1-9.06-.08,11.64,11.64,0,0,1-1.24-.16,1.4,1.4,0,0,1-1.25-1.53c0-1.81-.12-3.62-.16-5.47-.12-3.66-.24-7.32-.32-11-.08-2.41-.12-4.79-.2-7.16a9.3,9.3,0,0,1,0-1,2.75,2.75,0,0,1,.2-1,.87.87,0,0,1,1.33-.53l.24.13a1.29,1.29,0,0,0,1.69,0l.24-.13a1.2,1.2,0,0,1,1.69.45,3.62,3.62,0,0,1,.44,1.08,24.4,24.4,0,0,1,.56,4.51c.25,3.22.17,6.48.21,9.7s.12,6.32.2,9.5a4.2,4.2,0,0,0,.08.52C142.45,202.14,143.18,202.18,143.9,202.18Z"/>
  <path class="cls-1" d="M159.24,200.81a3.81,3.81,0,0,0,2.65.61,2.17,2.17,0,0,0,1.45-.85,7.61,7.61,0,0,0,1.25-2,6.51,6.51,0,0,1,.4-.89,1.57,1.57,0,0,1,.56-.48c.73-.28,1.13,0,1,.73a3.19,3.19,0,0,1-.12.6,10.43,10.43,0,0,1-1.65,3.34,6.81,6.81,0,0,1-4.91,2.7,11.83,11.83,0,0,1-2.66,0,6.55,6.55,0,0,1-3.9-2.06,13.54,13.54,0,0,1-3.42-5.87,24.2,24.2,0,0,1-.89-7.61,25,25,0,0,1,.69-5.23,14.86,14.86,0,0,1,1.53-3.66,8,8,0,0,1,5.47-4,7.12,7.12,0,0,1,6,1.33,10.52,10.52,0,0,1,2.41,2.74,14.58,14.58,0,0,1,2.09,8,10.56,10.56,0,0,1-.72,3.5,4.47,4.47,0,0,1-2.37,2.53,17.15,17.15,0,0,1-2,.69,26.75,26.75,0,0,1-5.67.6h-.81A8.75,8.75,0,0,0,159.24,200.81Zm-3.3-6.88c1.48-.12,3-.2,4.46-.32a20.48,20.48,0,0,0,2.26-.36,2.91,2.91,0,0,0,2.29-2.1,9.4,9.4,0,0,0,.36-4.34,16.65,16.65,0,0,0-1.85-5.39,8.71,8.71,0,0,0-2.21-2.66,4.41,4.41,0,0,0-1.49-.81,2.94,2.94,0,0,0-3.58,1.25,7.83,7.83,0,0,0-1.29,3.62,50.34,50.34,0,0,0-.24,5.48,26.87,26.87,0,0,0,.48,4.71,4.16,4.16,0,0,0,.24.88C155.57,193.89,155.77,193.93,155.94,193.93Z"/>
  <path class="cls-1" d="M183.42,193.29a3.06,3.06,0,0,1,.85.12.81.81,0,0,1,.16,1.45,1.52,1.52,0,0,1-1.09.32l-1.2-.12c-.49,0-1,0-1.49-.08a3.55,3.55,0,0,0-.08.6v3.58a15.29,15.29,0,0,1-.2,3,3.47,3.47,0,0,1-.53,1.49c-.24.36-.52.48-.88.24a1.9,1.9,0,0,0-2.14.08c-.76.49-1.32.24-1.77-.56a5.87,5.87,0,0,1-.6-2.46c-.08-1.57-.12-3.13-.16-4.7,0-.33,0-.65,0-1.05-.28,0-.52,0-.77-.08-.84,0-1.69-.08-2.57-.16a1.46,1.46,0,0,1-1-.36.55.55,0,0,1,0-.81,1.29,1.29,0,0,1,.77-.28c.88,0,1.73-.08,2.57-.16a7.34,7.34,0,0,0,.89-.08,8,8,0,0,0,.08-.93c0-3.3,0-6.6,0-9.9,0-1.37,0-2.69,0-4.06a5.4,5.4,0,0,1,.16-1.41,3.2,3.2,0,0,1,.48-.85.87.87,0,0,1,.89-.24,3,3,0,0,1,.44.16,1.45,1.45,0,0,0,1.45.08,1.17,1.17,0,0,1,.36-.08.72.72,0,0,1,.89.41c.16.36.32.72.44,1.08A17.06,17.06,0,0,1,180,181c.24,3.34.33,6.72.41,10.06a7.28,7.28,0,0,0,.16,2.06C181.57,193.17,182.5,193.21,183.42,193.29Z"/>
  <path class="cls-1" d="M216.23,185.68a20,20,0,0,1-1.49,3.54,10.14,10.14,0,0,1-1.17,1.81,4.75,4.75,0,0,1-6.08,1.05,7.41,7.41,0,0,1-2.73-2.66,10.82,10.82,0,0,1-1.49-4.3,29.81,29.81,0,0,1-.25-6c0-.52.17-1,.25-1.49a1.58,1.58,0,0,1,.24-.6c.24-.52.64-.52,1-.12.12.12.21.24.33.36a1.2,1.2,0,0,0,1.4.16,7.4,7.4,0,0,0,.65-.4.55.55,0,0,1,.8.24,2.28,2.28,0,0,1,.33.76c.08.61.12,1.21.16,1.78,0,.92,0,1.89,0,2.81a21,21,0,0,0,.72,5.44,7.37,7.37,0,0,0,.68,1.52,1.86,1.86,0,0,0,1,.93.92.92,0,0,0,1-.12,4.56,4.56,0,0,0,.92-1.09,7.63,7.63,0,0,0,1-2.13,31.62,31.62,0,0,0,1.17-5.71c.12-1,.24-2,.36-3a5,5,0,0,1,.64-1.85c.36-.57.61-.65,1.25-.41a1.69,1.69,0,0,0,1.81-.12l.68-.36a.81.81,0,0,1,1.21.52,5,5,0,0,1,.16.73c.12,1.17.24,2.33.32,3.54.21,3.58.33,7.2.21,10.79a22.87,22.87,0,0,1-.53,4.74,12.35,12.35,0,0,1-3.3,5.92,4.31,4.31,0,0,1-1,.72,9.42,9.42,0,0,1-4.79,1.37,10.85,10.85,0,0,1-2.54-.16,7,7,0,0,1-5.83-5.67c0-.4-.12-.81-.12-1.21s.16-.56.52-.64a.67.67,0,0,1,.84.4,6.3,6.3,0,0,1,.33.88,10.79,10.79,0,0,0,.56,1.49,5.55,5.55,0,0,0,5.15,3.22,5.42,5.42,0,0,0,2-.24,4.38,4.38,0,0,0,2.5-2,12.56,12.56,0,0,0,1-2.9,17.36,17.36,0,0,0,.57-4.14c.12-2.5-.08-5-.2-7.53,0-.08,0-.12-.12-.24C216.35,185.44,216.27,185.56,216.23,185.68Z"/>
  <path class="cls-1" d="M240.94,199.36a16,16,0,0,1-1.25,2.22,6.06,6.06,0,0,1-4.39,2.65,6.46,6.46,0,0,1-4.59-1.12,10.67,10.67,0,0,1-3.78-4.43,27.89,27.89,0,0,1-2.05-7.24,16.94,16.94,0,0,1,.88-8.58,11.68,11.68,0,0,1,3.38-5,8.12,8.12,0,0,1,7.05-1.93,5.14,5.14,0,0,1,3.1,1.77,13.31,13.31,0,0,1,1.73,2.7,18.28,18.28,0,0,1,1.65,6c.08,1.08.16,2.17.2,3.26A23.53,23.53,0,0,1,240.94,199.36Zm-.16-11.22a21,21,0,0,0-2-7.45,9.43,9.43,0,0,0-1.65-2.37,3.54,3.54,0,0,0-4.06-.49,6.56,6.56,0,0,0-2.05,2.3,11.06,11.06,0,0,0-1.37,5,39.24,39.24,0,0,0,.4,7.81,13.15,13.15,0,0,0,2.62,6.11,9.83,9.83,0,0,0,2.73,2.42,1.6,1.6,0,0,0,2.18-.32,8.75,8.75,0,0,0,.72-.89,13.56,13.56,0,0,0,1.49-3.18,25,25,0,0,0,1.05-7.28C240.86,189.38,240.82,188.74,240.78,188.14Z"/>
  <path class="cls-1" d="M263.52,198.84a13.09,13.09,0,0,1-1.17,2.3,6.42,6.42,0,0,1-6.2,2.77,8.65,8.65,0,0,1-6.08-3.42,15.1,15.1,0,0,1-2.73-5.71,52.6,52.6,0,0,1-1.57-13.53c0-.8.12-1.65.24-2.45a3.22,3.22,0,0,1,.44-1.45c.36-.6.69-.72,1.33-.36.08,0,.16.12.24.16a1.16,1.16,0,0,0,1.41,0,4.37,4.37,0,0,1,.6-.32.8.8,0,0,1,1.13.36,2.1,2.1,0,0,1,.32.89c.16.92.28,1.89.36,2.81.13,1.21.25,2.42.33,3.62,0,.61,0,1.21.08,1.82a59.65,59.65,0,0,0,1.12,8.85,15.2,15.2,0,0,0,1,2.9,6,6,0,0,0,3.34,3.1,4.22,4.22,0,0,0,.76.2,1.68,1.68,0,0,0,1.65-.45,5.68,5.68,0,0,0,1.13-1.53,14.26,14.26,0,0,0,1.33-4.26,37.59,37.59,0,0,0,.56-6.36c.08-3.86,0-7.69.08-11.55a3.42,3.42,0,0,1,0-.64.91.91,0,0,1,.93-1,.94.94,0,0,1,1.09.72,6.5,6.5,0,0,1,.2,1.21c.16,2.58.28,5.15.36,7.73s.12,5.27.24,7.89a44.7,44.7,0,0,0,.93,7.76c.08.37.2.73.28,1.13a1.26,1.26,0,0,1-.77,1.45.87.87,0,0,1-1.16-.32,3.36,3.36,0,0,1-.41-1c-.28-1.21-.52-2.45-.8-3.66,0-.12,0-.28-.08-.44a.24.24,0,0,1-.16,0A6.67,6.67,0,0,0,263.52,198.84Z"/>
  <path class="cls-1" d="M271.45,202.38a13.69,13.69,0,0,1-.17-1.81c-.12-2-.2-4.06-.32-6.08-.12-3.38-.28-6.8-.4-10.18-.08-1.85-.08-3.7-.08-5.55a3.29,3.29,0,0,1,.2-1.09,1.67,1.67,0,0,1,.44-.72.72.72,0,0,1,1.05,0,1.5,1.5,0,0,0,2.25.2.59.59,0,0,1,.93.32,3.58,3.58,0,0,1,.28.93c.12.88.2,1.81.32,2.73a2.48,2.48,0,0,0,.08.49,1.31,1.31,0,0,0,.37-.69,8.84,8.84,0,0,1,1.28-2.33,6.7,6.7,0,0,1,6-2.62,5.23,5.23,0,0,1,5,4.43.66.66,0,0,1-.93.76,1.65,1.65,0,0,1-.52-.4,2.43,2.43,0,0,1-.36-.64c-.2-.36-.4-.73-.56-1.09a3.51,3.51,0,0,0-4.27-1.61,6,6,0,0,0-3.38,2.78,11.21,11.21,0,0,0-1.09,2.94,33.63,33.63,0,0,0-.64,4.42,107.84,107.84,0,0,0-.12,11.92,11.2,11.2,0,0,1,0,2,6,6,0,0,1-.36,1.45,1,1,0,0,1-1.25.6c-.24-.08-.44-.2-.69-.28a1.32,1.32,0,0,0-1.28.08c-.25.16-.49.28-.73.44A1.51,1.51,0,0,1,271.45,202.38Z"/>
  <path class="cls-1" d="M144.75,306.88a1,1,0,0,1-1.13.16c-.2-.08-.4-.24-.6-.32a.92.92,0,0,0-1.05,0c-.12.08-.2.16-.32.24a.82.82,0,0,1-1.13-.08,2,2,0,0,1-.6-1.13,5.39,5.39,0,0,1-.2-1.41c-.08-1.65-.16-3.3-.2-4.95-.05-4.3-.09-8.65-.13-13,0-1.65,0-3.26,0-4.87,0-.56.08-1.16.12-1.73.09-.32.17-.64.29-1,.28-.57.72-.73,1.24-.36a1.89,1.89,0,0,0,2.34,0,.65.65,0,0,1,.84.12,2.28,2.28,0,0,1,.77,1.41,11.33,11.33,0,0,1,.24,2.61c0,.89,0,1.73,0,2.62,0,.16,0,.36.16.44a.15.15,0,0,0,.12,0,4.25,4.25,0,0,1,.44-.36,4.94,4.94,0,0,1,3.3-1.09,8.38,8.38,0,0,1,4.27,1.41,11.22,11.22,0,0,1,4.87,6.64,18.37,18.37,0,0,1,.32,8.21,10.87,10.87,0,0,1-1.25,3.74,6.42,6.42,0,0,1-6.92,3.1,6.58,6.58,0,0,1-4.22-2.78c-.16-.24-.33-.48-.65-.88-.08.72-.12,1.29-.2,1.81A2.57,2.57,0,0,1,144.75,306.88Zm7.93-19.8a5.51,5.51,0,0,0-3-1.29,2.67,2.67,0,0,0-3,1.81,10.82,10.82,0,0,0-.69,3.34c0,1.29-.12,2.58-.12,3.86a24.43,24.43,0,0,0,.81,6.12,9.76,9.76,0,0,0,1.81,3.7,4,4,0,0,0,5.27.93,5,5,0,0,0,1.77-2,10.35,10.35,0,0,0,1-3.46,20.09,20.09,0,0,0,.2-4.11,14.27,14.27,0,0,0-.6-3.62A10.2,10.2,0,0,0,152.68,287.08Z"/>
  <path class="cls-1" d="M172.11,303.42a3.89,3.89,0,0,0,2.66.6,2.18,2.18,0,0,0,1.45-.84,7.67,7.67,0,0,0,1.25-2.06,5.89,5.89,0,0,1,.4-.88,1.71,1.71,0,0,1,.56-.49c.73-.28,1.13,0,1,.73a3.19,3.19,0,0,1-.12.6,10.33,10.33,0,0,1-1.65,3.34,6.77,6.77,0,0,1-4.91,2.7,11.83,11.83,0,0,1-2.66,0,6.54,6.54,0,0,1-3.9-2.05,13.57,13.57,0,0,1-3.42-5.88,24.14,24.14,0,0,1-.89-7.6,25,25,0,0,1,.69-5.24,15.19,15.19,0,0,1,1.53-3.66,8,8,0,0,1,5.47-4,7.12,7.12,0,0,1,6,1.32,10.52,10.52,0,0,1,2.41,2.74,14.61,14.61,0,0,1,2.09,8,10.51,10.51,0,0,1-.72,3.5,4.48,4.48,0,0,1-2.38,2.54,16.36,16.36,0,0,1-2,.68,26.75,26.75,0,0,1-5.67.6h-.81A8.8,8.8,0,0,0,172.11,303.42Zm-3.3-6.88c1.49-.13,3-.21,4.47-.33a20.48,20.48,0,0,0,2.26-.36,2.9,2.9,0,0,0,2.29-2.09,9.45,9.45,0,0,0,.36-4.35,16.65,16.65,0,0,0-1.85-5.39,8.83,8.83,0,0,0-2.21-2.66,4.22,4.22,0,0,0-1.49-.8,2.94,2.94,0,0,0-3.58,1.25,7.75,7.75,0,0,0-1.29,3.62,50,50,0,0,0-.24,5.47,26.87,26.87,0,0,0,.48,4.71,4.16,4.16,0,0,0,.24.88C168.45,296.49,168.65,296.54,168.81,296.54Z"/>
  <path class="cls-1" d="M211.6,288.29a20.61,20.61,0,0,1-1.49,3.54,10.3,10.3,0,0,1-1.17,1.81,4.74,4.74,0,0,1-6.08,1,7.54,7.54,0,0,1-2.73-2.65,10.92,10.92,0,0,1-1.49-4.31,30.52,30.52,0,0,1-.24-6c0-.52.16-1,.24-1.48a1.56,1.56,0,0,1,.24-.61c.24-.52.64-.52,1-.12.12.12.2.24.32.36a1.18,1.18,0,0,0,1.41.16c.24-.12.44-.28.64-.4a.55.55,0,0,1,.8.24,2,2,0,0,1,.33.77c.08.6.12,1.21.16,1.77,0,.92,0,1.89,0,2.82a20.88,20.88,0,0,0,.72,5.43,7,7,0,0,0,.69,1.53,1.83,1.83,0,0,0,1,.92.92.92,0,0,0,1-.12,4.71,4.71,0,0,0,.92-1.08,7.69,7.69,0,0,0,1-2.14,30.78,30.78,0,0,0,1.17-5.71c.12-1,.24-2,.36-3a5.1,5.1,0,0,1,.64-1.85c.37-.56.61-.64,1.25-.4a1.73,1.73,0,0,0,1.81-.12l.69-.37a.8.8,0,0,1,1.2.53,4.65,4.65,0,0,1,.16.72c.13,1.17.25,2.34.33,3.54.2,3.59.32,7.21.2,10.79a23,23,0,0,1-.53,4.75,12.36,12.36,0,0,1-3.3,5.91,4.06,4.06,0,0,1-1,.73,9.52,9.52,0,0,1-4.79,1.37,10.85,10.85,0,0,1-2.54-.16,7,7,0,0,1-5.83-5.68,12.09,12.09,0,0,1-.12-1.21c0-.36.16-.56.52-.64a.68.68,0,0,1,.85.4,7.93,7.93,0,0,1,.32.89,11.84,11.84,0,0,0,.56,1.49A5.57,5.57,0,0,0,206,305a5.22,5.22,0,0,0,2-.25,4.31,4.31,0,0,0,2.5-2.05,12.89,12.89,0,0,0,1.05-2.9,17.73,17.73,0,0,0,.56-4.14c.12-2.5-.08-5-.2-7.53,0-.08,0-.12-.12-.24C211.72,288,211.64,288.16,211.6,288.29Z"/>
  <path class="cls-1" d="M236.31,302a15,15,0,0,1-1.25,2.21,6.05,6.05,0,0,1-4.39,2.66,6.43,6.43,0,0,1-4.58-1.13,10.63,10.63,0,0,1-3.79-4.43,28.17,28.17,0,0,1-2.05-7.24,16.78,16.78,0,0,1,.89-8.57,11.59,11.59,0,0,1,3.38-5,8.06,8.06,0,0,1,7-1.93,5.06,5.06,0,0,1,3.1,1.77,12.83,12.83,0,0,1,1.73,2.69,18.35,18.35,0,0,1,1.65,6c.08,1.09.16,2.17.2,3.26A23.45,23.45,0,0,1,236.31,302Zm-.16-11.23a21,21,0,0,0-2-7.45,10,10,0,0,0-1.65-2.37,3.54,3.54,0,0,0-4.07-.48,6.63,6.63,0,0,0-2.05,2.29,11.06,11.06,0,0,0-1.37,4.95,39.2,39.2,0,0,0,.4,7.81,13.23,13.23,0,0,0,2.62,6.12,9.8,9.8,0,0,0,2.73,2.41,1.6,1.6,0,0,0,2.18-.32,7,7,0,0,0,.72-.89,13,13,0,0,0,1.49-3.18,24.63,24.63,0,0,0,1-7.28C236.23,292,236.19,291.34,236.15,290.74Z"/>
  <path class="cls-1" d="M258.89,301.44a12.44,12.44,0,0,1-1.17,2.3,6.42,6.42,0,0,1-6.2,2.78,8.66,8.66,0,0,1-6.07-3.42,15.08,15.08,0,0,1-2.74-5.72,52.52,52.52,0,0,1-1.57-13.52c0-.81.12-1.65.24-2.46a3.25,3.25,0,0,1,.44-1.45c.37-.6.69-.72,1.33-.36.08,0,.16.12.24.16a1.13,1.13,0,0,0,1.41,0,4,4,0,0,1,.61-.32.79.79,0,0,1,1.12.36,2.15,2.15,0,0,1,.32.89c.17.92.29,1.89.37,2.82.12,1.2.24,2.41.32,3.62,0,.6,0,1.21.08,1.81a58,58,0,0,0,1.13,8.85,14.51,14.51,0,0,0,1,2.9,6,6,0,0,0,3.34,3.1,4.12,4.12,0,0,0,.77.2,1.71,1.71,0,0,0,1.65-.44,6,6,0,0,0,1.12-1.53,14.42,14.42,0,0,0,1.33-4.27,37.5,37.5,0,0,0,.56-6.36c.09-3.86,0-7.68.09-11.55a3.42,3.42,0,0,1,0-.64.91.91,0,0,1,.92-1,.94.94,0,0,1,1.09.73,6.24,6.24,0,0,1,.2,1.21c.16,2.57.28,5.15.36,7.72s.12,5.27.24,7.89a44.82,44.82,0,0,0,.93,7.77c.08.36.2.72.28,1.12a1.26,1.26,0,0,1-.76,1.45.88.88,0,0,1-1.17-.32,3.27,3.27,0,0,1-.4-1c-.29-1.21-.53-2.46-.81-3.67,0-.12,0-.28-.08-.44a.24.24,0,0,1-.16,0A6.67,6.67,0,0,0,258.89,301.44Z"/>
  <path class="cls-1" d="M266.82,305a14,14,0,0,1-.16-1.81c-.12-2-.21-4.07-.33-6.08-.12-3.38-.28-6.8-.4-10.18-.08-1.85-.08-3.71-.08-5.56a3.23,3.23,0,0,1,.2-1.08,1.58,1.58,0,0,1,.45-.73.71.71,0,0,1,1,0,1.5,1.5,0,0,0,2.26.2.58.58,0,0,1,.92.33,3.51,3.51,0,0,1,.28.92c.12.89.2,1.81.32,2.74a2.39,2.39,0,0,0,.08.48,1.22,1.22,0,0,0,.37-.68,8.89,8.89,0,0,1,1.28-2.34,6.68,6.68,0,0,1,6-2.61,5.23,5.23,0,0,1,5,4.42.66.66,0,0,1-.92.77,1.58,1.58,0,0,1-.53-.4,2.68,2.68,0,0,1-.36-.65c-.2-.36-.4-.72-.56-1.09A3.51,3.51,0,0,0,277.4,280a6.11,6.11,0,0,0-3.38,2.78,11.72,11.72,0,0,0-1.09,2.94,33.77,33.77,0,0,0-.64,4.43,107.63,107.63,0,0,0-.12,11.91,11.18,11.18,0,0,1,0,2,5.92,5.92,0,0,1-.36,1.45,1,1,0,0,1-1.25.6c-.24-.08-.44-.2-.68-.28a1.34,1.34,0,0,0-1.29.08c-.24.16-.49.28-.73.45A1.53,1.53,0,0,1,266.82,305Z"/>
  <path class="cls-2" d="M252.93,332.52c.15-.3.24-.5.34-.69a2.56,2.56,0,0,1,3.11-1.2,1.39,1.39,0,0,1,1.06,1.29,23.48,23.48,0,0,1-.1,2.65,46.81,46.81,0,0,0-.21,9.09,25.24,25.24,0,0,0,1,5.59,13.47,13.47,0,0,0,.79,1.83,1.86,1.86,0,0,0,1.07,1,4.48,4.48,0,0,0,.72-.66,26.39,26.39,0,0,0,1.72-2.5,47.48,47.48,0,0,0,4.32-11.07,1.9,1.9,0,0,0-.65-2.21,62.4,62.4,0,0,1-4.54-4.66,13.46,13.46,0,0,1-3-6,7.77,7.77,0,0,1,.07-3.95,6,6,0,0,1,.66-1.48,4.25,4.25,0,0,1,5.46-1.56,7,7,0,0,1,2.4,1.94,13.35,13.35,0,0,1,2.73,6.24,24.22,24.22,0,0,1,.23,6.64,1,1,0,0,0,.4.94,58.94,58.94,0,0,1,6.15,6.09l.84,1a72.06,72.06,0,0,0,5.86-7.05,5,5,0,0,1-.62-.48c-1.17-1.23-2.4-2.42-3.48-3.73a11.9,11.9,0,0,1-2.62-5.81,8.9,8.9,0,0,1,2.36-7.84,9.7,9.7,0,0,1,2.68-2.09,5.4,5.4,0,0,1,6.48,1,8.7,8.7,0,0,1,2.79,6.25,15,15,0,0,1-1.41,6.75c-.53,1.17-1.18,2.28-1.78,3.41-.11.22-.24.43-.42.73l6.06,4.85.46-.7a18.73,18.73,0,0,1,4.49-5,10.15,10.15,0,0,1,4.31-2,7.1,7.1,0,0,1,2.94,0,5,5,0,0,1,3.81,3.56,8.83,8.83,0,0,1,.18,4.18,1.38,1.38,0,0,1-1.48,1.17,1.26,1.26,0,0,1-1.37-1.18c-.12-.73-.13-1.47-.27-2.2a7.6,7.6,0,0,0-.56-1.75A2.11,2.11,0,0,0,303,331.6a8.11,8.11,0,0,0-1.76.77,15.56,15.56,0,0,0-5.72,6.33l.44.48c1.23,1.34,2.54,2.63,3.69,4a22.87,22.87,0,0,1,4.43,8.31,12.68,12.68,0,0,1-.21,8.14,7.43,7.43,0,0,1-5,4.91,6.58,6.58,0,0,1-6.35-1.16,6.71,6.71,0,0,1-1.57-2.05,15.35,15.35,0,0,1-1.65-6.91,38.37,38.37,0,0,1,2-12.89.93.93,0,0,0-.31-1.2c-2-1.62-3.9-3.26-5.85-4.89a1.16,1.16,0,0,0-.24-.14l-6.31,7.16.38.69a18.77,18.77,0,0,1,2.47,6.92,11.46,11.46,0,0,1-.39,5.2,6.81,6.81,0,0,1-4.21,4.56,5.33,5.33,0,0,1-3.28.16,4.78,4.78,0,0,1-3.32-3.3,9.19,9.19,0,0,1,.1-5.75,17.1,17.1,0,0,1,3.08-5.53l.71-.89a34.14,34.14,0,0,0-5.08-6.11c-.12.35-.21.59-.28.84a58.91,58.91,0,0,1-3.28,9.11c-.5,1.05-1,2.07-1.64,3.07a9.16,9.16,0,0,1-1.36,1.74,4.77,4.77,0,0,1-6.95,0A9.93,9.93,0,0,1,254,351a16.63,16.63,0,0,1-1.77-6.3,1.85,1.85,0,0,0-.22-.79c-.12.21-.25.41-.36.62-1.13,2.09-2.23,4.18-3.38,6.25a19.29,19.29,0,0,1-1.59,2.41,6.88,6.88,0,0,1-1.43,1.37,4.05,4.05,0,0,1-4.91,0,8.34,8.34,0,0,1-2.07-2.2,19.54,19.54,0,0,1-2.91-7.53c-.19-1.12-.23-2.26-.33-3.39,0-.16,0-.32,0-.59-.23.16-.39.26-.53.38-.7.58-1.39,1.19-2.11,1.75a1.37,1.37,0,0,0-.54,1.06c-.18,1.59-.32,3.2-.64,4.76a14.23,14.23,0,0,1-3.3,6.94,7.78,7.78,0,0,1-2.6,2,4.15,4.15,0,0,1-4.48-.42,4.28,4.28,0,0,1-1.68-4.19,8.07,8.07,0,0,1,1.82-4.07,13.25,13.25,0,0,1,3.76-3.19c.65-.37,1.3-.7,2-1.05a.61.61,0,0,0,.39-.56,34.32,34.32,0,0,0-.6-10.31,14.85,14.85,0,0,0-.89-2.58,5.39,5.39,0,0,0-1-1.38,1.42,1.42,0,0,0-1.82-.31,7.13,7.13,0,0,0-1.56,1.11,12.74,12.74,0,0,0-2.76,4.08,29.19,29.19,0,0,0-2.21,8,85,85,0,0,0-.57,14.26c.05,2.25.26,4.49.41,6.73a11.22,11.22,0,0,0,.19,1.16c.25,1.32-1.36,2.35-2.42,2.09a1.29,1.29,0,0,1-.87-.75c-.44-1-.92-1.91-1.31-2.9a66.91,66.91,0,0,1-2.69-8.92c-.07-.28-.14-.56-.24-1-.1.29-.17.43-.21.59-.55,2.23-1.08,4.46-1.64,6.68a9.48,9.48,0,0,1-.59,1.75,4.61,4.61,0,0,1-.85,1.28,2.51,2.51,0,0,1-3.54.23,8,8,0,0,1-1.53-1.79,23.84,23.84,0,0,1-3-7.46,69.66,69.66,0,0,1-1.53-11.51c-.14-2.7-.31-5.41-.57-8.11a33.9,33.9,0,0,0-.73-3.85,8.57,8.57,0,0,0-.34-1,5,5,0,0,0-.84.63,19.84,19.84,0,0,0-1.49,1.93,25.79,25.79,0,0,0-3.21,8.16,54.62,54.62,0,0,0-1.38,9.36c-.08,1.26-.16,2.51-.25,3.77a1.6,1.6,0,0,1-1.46,1.59,1.5,1.5,0,0,1-1.79-1,14.83,14.83,0,0,1-1.21-4.11c-.36-2.11-.64-4.24-.89-6.37-.38-3.13-.69-6.28-1.06-9.41a14.4,14.4,0,0,0-.47-2,6.61,6.61,0,0,0-.34-.82,12.93,12.93,0,0,0-1.05.81,12.44,12.44,0,0,0-2.71,3.94,30.24,30.24,0,0,0-2.66,9.44c-.3,2.67-.42,5.36-.63,8,0,.54-.06,1.08-.12,1.62a1.72,1.72,0,0,1-1.29,1.47,1.65,1.65,0,0,1-1.9-.43,6.64,6.64,0,0,1-.8-1.16,22,22,0,0,1-2.24-6.39A73.39,73.39,0,0,1,165,337.31a3.09,3.09,0,0,0-.05-.44l-4.87,2.65c0,1.21,0,2.39,0,3.57a29.18,29.18,0,0,1-2.23,10.51,11.2,11.2,0,0,1-2,3.35,5.68,5.68,0,0,1-5,2.1,6.61,6.61,0,0,1-3.48-1.52,13.19,13.19,0,0,1-4.33-6.75c-.06-.23-.13-.45-.23-.8-.17.31-.3.51-.41.72-.94,1.76-1.87,3.53-2.82,5.29a15.55,15.55,0,0,1-2.23,3.22,5,5,0,0,1-3.12,1.7,5.33,5.33,0,0,1-2.81-.46,8.2,8.2,0,0,1-2.6-1.8,19.44,19.44,0,0,1-4.4-6.87,28.71,28.71,0,0,1-2.09-12.53,16.42,16.42,0,0,1,1.45-6.08c.18-.38.38-.74.59-1.11a5.55,5.55,0,0,1,7.79-1.93,8.64,8.64,0,0,1,2.56,2.33,10.36,10.36,0,0,1,1.85,5.23c.08.77-.41,1.22-1.1,1.09a.87.87,0,0,1-.7-.59c-.16-.44-.29-.89-.44-1.34-.25-.72-.48-1.45-.78-2.15a6.28,6.28,0,0,0-2.17-2.67,4.15,4.15,0,0,0-1-.55,1.58,1.58,0,0,0-2.11.68,8.68,8.68,0,0,0-.73,1.54,16.3,16.3,0,0,0-.86,4.49,32,32,0,0,0,3.08,15.73,12.27,12.27,0,0,0,2.12,3.29,8.46,8.46,0,0,0,1.71,1.39,1.26,1.26,0,0,0,1.8-.25,8.74,8.74,0,0,0,1-1.18c.56-.81,1.13-1.63,1.61-2.49,1.43-2.53,2.82-5.09,4.21-7.65a2,2,0,0,0,.27-.9,19.57,19.57,0,0,1,1-6.28q-.16-.23-.36-.45a9.84,9.84,0,0,1-2.11-9.34,7.82,7.82,0,0,1,6.55-5.76,9.2,9.2,0,0,1,7.21,2.47,12,12,0,0,1,2.37,3.11,24.9,24.9,0,0,1,2.49,7.1c.05.24.1.47.16.77a3.15,3.15,0,0,0,.5-.18c1.36-.75,2.71-1.53,4.07-2.27a1.13,1.13,0,0,0,.67-1.1,22,22,0,0,1,.24-2.8,2.06,2.06,0,0,1,2.16-1.83,2,2,0,0,1,2.15,1.72,13.2,13.2,0,0,1,.25,2.35,91.84,91.84,0,0,0,.63,9.52c.13,1.08.32,2.15.49,3.22a4.52,4.52,0,0,0,.17.59c.29-1.49.53-2.87.82-4.24a33.4,33.4,0,0,1,2.68-7.83,12.72,12.72,0,0,1,3-4.11,5,5,0,0,1,2.41-1.22,4.12,4.12,0,0,1,4.45,2.09,9.15,9.15,0,0,1,1.1,3.2c.32,2.05.59,4.1.88,6.15a2.56,2.56,0,0,0,.16-.4,40.74,40.74,0,0,1,2.39-7.3,14.57,14.57,0,0,1,2.57-4.05A4.68,4.68,0,0,1,195,327.6a4,4,0,0,1,3.14,1.39,7.09,7.09,0,0,1,1.36,2.52,18.61,18.61,0,0,1,.87,4.42c.23,3.27.45,6.55.59,9.83a63.08,63.08,0,0,0,1.51,12.32c.27,1.07.68,2.11,1,3.15a9.35,9.35,0,0,0,.5.94c.21-.62.39-1.06.51-1.52.65-2.5,1.31-5,1.93-7.52.39-1.61.74-3.22,1.06-4.85a5.7,5.7,0,0,0,.06-1.75,52.65,52.65,0,0,1-.27-10.35c.1-1.4.28-2.79.49-4.18a4.35,4.35,0,0,1,.49-1.39,2.46,2.46,0,0,1,2.81-1.12,1.47,1.47,0,0,1,1.15,1.38c0,.52,0,1,0,1.55-.05,2.35-.14,4.69-.18,7a67.4,67.4,0,0,0,.92,10.46c.27-.25.19-.52.2-.76a57.14,57.14,0,0,1,.94-8.15,28.56,28.56,0,0,1,2.24-7.11,14.51,14.51,0,0,1,3.16-4.44,6,6,0,0,1,3.8-1.79,5.84,5.84,0,0,1,4.77,2,11.42,11.42,0,0,1,2.17,3.5,21.84,21.84,0,0,1,1.59,7.27c0,.18,0,.37.07.65a5.43,5.43,0,0,0,.47-.34l2.39-2a1.5,1.5,0,0,0,.54-.93,15.47,15.47,0,0,1,2.31-5.8,8.79,8.79,0,0,1,4.59-3.57,8.35,8.35,0,0,1,6.73.68,11.65,11.65,0,0,1,3.41,2.8Zm-9.37,20.54c.35-.37.64-.6.86-.89a30.41,30.41,0,0,0,1.81-2.61c1.9-3.29,3.74-6.62,5.6-9.93a1.92,1.92,0,0,0,.22-.69c.08-.74.13-1.48.16-2.22a1.33,1.33,0,0,0-.13-.69,14.45,14.45,0,0,0-3.19-3.78,8,8,0,0,0-2.5-1.39,3.07,3.07,0,0,0-3.06.56,6.93,6.93,0,0,0-1.78,2.24,16.64,16.64,0,0,0-1.93,7.3,21,21,0,0,0,1.58,8.53,17.12,17.12,0,0,0,1.37,2.52A7.73,7.73,0,0,0,243.56,353.06ZM157.44,339c0-.28,0-.48-.06-.67a27.61,27.61,0,0,0-1.46-5.72,16.17,16.17,0,0,0-2.27-4.21,6.45,6.45,0,0,0-3.71-2.4,4.65,4.65,0,0,0-4.74,1.3,6.64,6.64,0,0,0-1.8,3.09,9.26,9.26,0,0,0,1,7,3.5,3.5,0,0,0,.33.43c.27-.17.47-.32.68-.43a1.72,1.72,0,0,1,2.69,1.56c0,.27-.05.54-.07.81s0,.43,0,.67a8,8,0,0,0,3.73.53A20,20,0,0,0,157.44,339Zm-9.76,3.17c-.06.42-.12.73-.16,1a24.07,24.07,0,0,0,0,5,16.08,16.08,0,0,0,1.59,5.59,6.9,6.9,0,0,0,1.61,2.18c1.36,1.21,2.29,1.15,3.44-.24a10.63,10.63,0,0,0,1.75-3.07,28.34,28.34,0,0,0,1.76-11.46c0-.14,0-.28-.09-.51C154.43,342.2,151.24,343.21,147.68,342.13Zm146.1,1.05a31.5,31.5,0,0,0-1.37,13.15,10.24,10.24,0,0,0,1.31,3.9,7.94,7.94,0,0,0,1.1,1.47,2.67,2.67,0,0,0,4.2-.5,7.06,7.06,0,0,0,.74-1.69,12.54,12.54,0,0,0-.26-7.71,23.47,23.47,0,0,0-5.44-8.46A1.63,1.63,0,0,0,293.78,343.18Zm-8.22-12.95a25.17,25.17,0,0,0,2-4.48,13.14,13.14,0,0,0,.67-5.39,6.48,6.48,0,0,0-1.5-3.78c-1.36-1.53-1.83-1.43-3.13-.55a2.6,2.6,0,0,0-.42.29,7.15,7.15,0,0,0-2.28,6C281.27,325.59,283.14,328,285.56,330.23Zm-17.91,1c0-.26.07-.42.07-.58,0-.76,0-1.53-.1-2.29a15.42,15.42,0,0,0-1.45-5.61,7.58,7.58,0,0,0-2-2.56c-.88-.72-1.35-.59-1.72.49a2.22,2.22,0,0,0-.16.71,11.62,11.62,0,0,0,.07,2.21C263.05,326.84,265.16,329.11,267.65,331.23Zm7.56,15.3a13.3,13.3,0,0,0-2.54,5,11,11,0,0,0-.25,2.49,3.76,3.76,0,0,0,1.38,3c1,.82,1.77.67,2.21-.55a10.73,10.73,0,0,0,.57-2.43A13.52,13.52,0,0,0,275.21,346.53Zm-48.36,0a12.05,12.05,0,0,0-3.94,2.87A6.55,6.55,0,0,0,221.5,352a3.8,3.8,0,0,0-.07,2.19,2.38,2.38,0,0,0,1.37,1.64.9.9,0,0,0,1.3-.3,10.48,10.48,0,0,0,1-1.48C226.29,351.76,226.45,349.21,226.85,346.56Z"/>
  <path class="cls-3" d="M170,232.53c-.43.36-.88.7-1.28,1.09a23.45,23.45,0,0,0-3.23,4.13A40.15,40.15,0,0,0,160.35,250c-.65,2.68-1.09,5.41-1.64,8.12a6.94,6.94,0,0,1-.32,1.21,2.4,2.4,0,0,1-4.18.72,9.64,9.64,0,0,1-1.13-1.81,53.79,53.79,0,0,1-4.35-12.16,51,51,0,0,1-1.39-12.18,38.83,38.83,0,0,1,2.19-13.3,30.14,30.14,0,0,1,1.46-3.23,8.27,8.27,0,0,1,2-2.52,4.9,4.9,0,0,1,7.39.93,11.45,11.45,0,0,1,1.83,5.18,15.13,15.13,0,0,1-.39,5.8,22.57,22.57,0,0,1-7.54,12c-.58.49-1.18,1-1.8,1.48a99.36,99.36,0,0,0,3.75,15.77h.16c.11-.51.23-1,.34-1.53a61.21,61.21,0,0,1,4.16-12.78,44.44,44.44,0,0,1,4.88-8.18,20.85,20.85,0,0,1,1.92-2.16,4.62,4.62,0,0,1,2.82-1.34,3.44,3.44,0,0,1,3.71,2.09,9.88,9.88,0,0,1,.72,3.16,69.61,69.61,0,0,1,.09,9.47,61.49,61.49,0,0,0,.37,11.9,22.6,22.6,0,0,0,1.22,4.94,28.38,28.38,0,0,0,1.45,3,2.65,2.65,0,0,0,1,1.1,4.08,4.08,0,0,0,.77-1.37,23.93,23.93,0,0,0,1.31-4.7c.61-3.37,1.17-6.75,1.72-10.14a2.69,2.69,0,0,0-.12-1.08,34.06,34.06,0,0,1-1.41-10.66,18.57,18.57,0,0,1,1.59-7A11.89,11.89,0,0,1,185.5,227a6.7,6.7,0,0,1,3.53-1.9,5.53,5.53,0,0,1,5.38,1.94,9.07,9.07,0,0,1,2.14,4.73,11.29,11.29,0,0,1-4,10.94,11.85,11.85,0,0,1-4.46,2.26l-.93.27c.05.29.1.58.17.85a38.11,38.11,0,0,0,3.95,9.86,21.35,21.35,0,0,0,1.8,2.52,8,8,0,0,0,1.17,1,10.12,10.12,0,0,0,.82-1,21.54,21.54,0,0,0,1.44-2.5c1.5-3.38,3-6.78,4.43-10.18.32-.74.6-1.51.94-2.25a3.7,3.7,0,0,0,.29-1.8,17.75,17.75,0,0,1,.64-6.15,12.77,12.77,0,0,1,3.55-5.72,7.69,7.69,0,0,1,9.56-1,15.28,15.28,0,0,1,3.49,3.07l.59.67.29-.7a2.63,2.63,0,0,1,3.05-1.52,1.53,1.53,0,0,1,1.24,1.54c0,1,0,2-.05,3a90.8,90.8,0,0,0-.2,9.33,38.14,38.14,0,0,0,2.48,12.35,16,16,0,0,0,2,3.72,2.52,2.52,0,0,0,1.23,1,3.31,3.31,0,0,0,1-1.41,22.32,22.32,0,0,0,1.52-4.48,85.86,85.86,0,0,0,1.85-10.94,60.38,60.38,0,0,0,.23-9c-.05-1.21-.2-2.41-.3-3.61a3.39,3.39,0,0,0-.12-.45c-.65-.09-1.28-.17-1.9-.29a9.25,9.25,0,0,1-4.18-1.79,8,8,0,0,1-3.06-8.41,4.26,4.26,0,0,1,6.71-2.67,7.44,7.44,0,0,1,2.19,2.38,18.79,18.79,0,0,1,2.17,5.48c.26,1.05.46,2.12.69,3.2a5.93,5.93,0,0,0,.73,0c1.39-.2,2.78-.43,4.17-.62a12.32,12.32,0,0,1,1.92-.15,4.24,4.24,0,0,1,4.2,2.92,11.2,11.2,0,0,1,.72,3.61c.1,2.07.13,4.14.19,6.22.09,2.86.16,5.72.3,8.58a22.23,22.23,0,0,0,1.16,6.46,20.07,20.07,0,0,0,.88,2,7.36,7.36,0,0,0,.62.87,9.19,9.19,0,0,0,.71-1.13c.76-1.77,1.57-3.52,2.22-5.32,1.18-3.27,2.26-6.58,3.37-9.88a2.54,2.54,0,0,0,.14-.86,76.74,76.74,0,0,1,.05-9.1c.07-1.13.14-2.26.22-3.46-.49-.09-.94-.19-1.4-.25a26.42,26.42,0,0,0-5.76-.08,2.12,2.12,0,0,1-.87-.07.45.45,0,0,1-.2-.81,2.16,2.16,0,0,1,.86-.54,19.29,19.29,0,0,1,2.58-.6,16.48,16.48,0,0,1,4.21,0,6.74,6.74,0,0,0,.78,0c.11-1.22.2-2.42.34-3.62.23-2.11.44-4.22.75-6.32a2.32,2.32,0,0,1,2.94-2.05,1.82,1.82,0,0,1,1.62,1.75,11.31,11.31,0,0,1,0,1.84c-.21,2.76-.45,5.51-.67,8.27,0,.29,0,.58-.07.94.28.06.53.14.79.17,1.18.15,2.35.33,3.53.41a8.45,8.45,0,0,0,3.54-.63c.71-.28,1.45-.48,2.17-.74.23-.08.43-.22.66-.32a2,2,0,0,1,.69-.21.73.73,0,0,1,.75,1.05,1.78,1.78,0,0,1-.71.8,14.83,14.83,0,0,1-9.28,2.14c-.73-.09-1.47-.16-2.28-.24,0,.25-.1.48-.12.71a82.29,82.29,0,0,0-.15,10.88,48.39,48.39,0,0,0,1.89,11.58,16.14,16.14,0,0,0,2.37,5,2.92,2.92,0,0,0,1.47,1.21,5.17,5.17,0,0,0,.87-.94,13.18,13.18,0,0,0,1.19-2.45c.75-2.35,1.4-4.73,2.09-7.1.12-.4.22-.81.37-1.2a1.65,1.65,0,0,1,1.79-1,.86.86,0,0,1,.84,1.12c-.22,1.06-.48,2.12-.76,3.17-.48,1.76-1,3.52-1.5,5.26a11,11,0,0,1-1.78,3.48,5.89,5.89,0,0,1-2.11,1.82,4.08,4.08,0,0,1-4.28-.27,9.38,9.38,0,0,1-2.26-2.23,18.53,18.53,0,0,1-2.87-5.48c-.52-1.57-.93-3.17-1.39-4.76a2.36,2.36,0,0,0-.29-.73c-.09.24-.18.48-.26.72-.74,2.25-1.45,4.51-2.24,6.74A22.09,22.09,0,0,1,255,259a7,7,0,0,1-1.38,1.8,3.55,3.55,0,0,1-5.07-.08,9,9,0,0,1-1.38-1.74,19.94,19.94,0,0,1-2.94-8.68c-.21-2.24-.27-4.48-.34-6.73-.07-2.59,0-5.18-.12-7.77a32.87,32.87,0,0,0-.45-4c-.13-.83-.31-.95-1.16-.91-1.28.06-2.56.2-3.83.31-.37,0-.73.09-1.15.14.09,1,.16,1.88.26,2.81a55.87,55.87,0,0,1,.15,8.87,70.46,70.46,0,0,1-1.4,10.33c-.4,1.9-.93,3.78-1.47,5.65a8.11,8.11,0,0,1-1.8,3.29,4.87,4.87,0,0,1-7.38.15,13.62,13.62,0,0,1-1.8-2.34,27.08,27.08,0,0,1-3.65-9.78c-.31-1.67-.42-3.38-.62-5.07a.86.86,0,0,0-.18-.52c-.17.31-.35.62-.51.93-1.1,2.07-2.19,4.15-3.3,6.21a11.07,11.07,0,0,1-2.33,3.14,7.16,7.16,0,0,1-1.75,1.2,3.66,3.66,0,0,1-4.32-.71,10.32,10.32,0,0,1-1.52-1.89,20.28,20.28,0,0,1-2.37-5.49c-.06-.21-.12-.42-.24-.78-.15.36-.26.59-.35.83-.94,2.36-1.85,4.73-2.81,7.08a26.18,26.18,0,0,1-1.52,3.21,9.75,9.75,0,0,1-1.64,2.17,4.37,4.37,0,0,1-5.76.52,10.67,10.67,0,0,1-1.84-1.58,24.12,24.12,0,0,1-3.94-5.71c-.1-.2-.2-.4-.31-.59,0,0-.08,0-.2-.12-.17.93-.33,1.84-.5,2.74a55.75,55.75,0,0,1-1.79,7.56,18,18,0,0,1-.67,1.72,5.43,5.43,0,0,1-.69,1.13,2.77,2.77,0,0,1-3.83.65,7.05,7.05,0,0,1-1.92-1.93,22.59,22.59,0,0,1-3.26-6.69,38.21,38.21,0,0,1-1.33-7.34,107.72,107.72,0,0,1-.16-11.92c0-1.7,0-3.4,0-5.11a13,13,0,0,0-.17-1.38Zm40.48,21.65a6.78,6.78,0,0,0,1-1c.87-1.17,1.76-2.33,2.51-3.57,1.28-2.1,2.46-4.27,3.68-6.41.5-.88,1-1.76,1.47-2.65a1.88,1.88,0,0,0,.27-.75c.08-1,.13-2.07.16-3.1a1.15,1.15,0,0,0-.19-.68,17.26,17.26,0,0,0-5-4.76,9.27,9.27,0,0,0-1.67-.75,2.4,2.4,0,0,0-2.49.5,7.78,7.78,0,0,0-1.2,1.3,12.13,12.13,0,0,0-2.31,6.38,29.4,29.4,0,0,0,.9,9.75,16.55,16.55,0,0,0,1.68,4.33A3.24,3.24,0,0,0,210.5,254.18Zm-58.14-15.93a1.09,1.09,0,0,0,.23-.13A22.56,22.56,0,0,0,159,228.6a16.76,16.76,0,0,0,1-6.46,10.51,10.51,0,0,0-1.39-4.93,5.55,5.55,0,0,0-1.11-1.26.86.86,0,0,0-1.33,0,7.08,7.08,0,0,0-1.16,1.41,15,15,0,0,0-1.49,3.78,47.63,47.63,0,0,0-1.29,16.35A5.53,5.53,0,0,0,152.36,238.25Zm34.44,5.25a8.42,8.42,0,0,0,5.66-3.6,10.31,10.31,0,0,0,1.24-8,6.47,6.47,0,0,0-2-3.57c-1.1-1-1.73-.92-2.66.2a9.15,9.15,0,0,0-1.64,3,21.76,21.76,0,0,0-1,9.84C186.56,242,186.68,242.7,186.8,243.5Zm47.14-14.05a2.72,2.72,0,0,0,0-.42,25.39,25.39,0,0,0-1.44-5.64,18.06,18.06,0,0,0-1.36-2.62,4.26,4.26,0,0,0-1.13-1.15,1,1,0,0,0-1.6.26,3.93,3.93,0,0,0-.63,1.4A6.61,6.61,0,0,0,233.94,229.45Z"/>
  <path class="cls-3" d="M223.86,99a9.63,9.63,0,0,1,8.39,1.23c2.64,1.7,3.78,4.28,4.29,7.28l2.63.52L261,112.19l3.28.62a2.5,2.5,0,0,1,.29,0,1.07,1.07,0,0,1,.88,1,1,1,0,0,1-.87,1.06c-.67.16-1.35.28-2,.42l-30.69,6.1a1.25,1.25,0,0,0-.62.33,56.79,56.79,0,0,1-7.56,6.9,1.24,1.24,0,0,0-.43.9q-.56,3-1.09,5.91L219.13,152l-2,10.72a4.19,4.19,0,0,1-.11.51,1,1,0,0,1-1,.79,1.11,1.11,0,0,1-1.16-.75,9.83,9.83,0,0,1-.28-1.22q-2.37-12-4.72-24-.85-4.32-1.69-8.66a1.42,1.42,0,0,0-.58-1,54.48,54.48,0,0,1-7.19-6.64,2.11,2.11,0,0,0-1.19-.66q-15.67-3.09-31.35-6.22c-.25,0-.49-.09-.73-.15-.73-.18-1.12-.57-1.11-1.11s.41-.93,1.14-1.06c1.14-.22,2.29-.42,3.43-.63l18.23-3.35,6.25-1.15c.12-.48.23-1,.35-1.43a9.53,9.53,0,0,1,9.08-7.41,18.11,18.11,0,0,1,2.72.3c.19,0,.37.09.62.14.21-1,.41-1.86.6-2.78q3.15-15.06,6.29-30.12a3.44,3.44,0,0,1,.22-.71,1.05,1.05,0,0,1,1.09-.62,1,1,0,0,1,.88.78c.22.94.41,1.88.6,2.83l6.12,30C223.73,98.62,223.79,98.8,223.86,99Zm-8,32.55,2.28-1.51a59.73,59.73,0,0,0,11.88-10,20.77,20.77,0,0,0,3.36-4.79,12.21,12.21,0,0,0,.37-10.07,7.46,7.46,0,0,0-7.93-4.47,11.73,11.73,0,0,0-8,5.24c-.37.56-.69,1.14-1.07,1.7a.93.93,0,0,1-1.68,0,8.27,8.27,0,0,1-.61-.93,12.56,12.56,0,0,0-7.78-5.89,7.56,7.56,0,0,0-8.51,3.74,11.53,11.53,0,0,0-1.17,5.24,12.49,12.49,0,0,0,1.68,6.16,25.42,25.42,0,0,0,3.44,4.55,65.65,65.65,0,0,0,13.47,10.88Zm-6-31.71a14.33,14.33,0,0,1,5.92,5.1c1-1,1.82-2.09,2.82-3a38,38,0,0,1,3.31-2.32c-1.95-9.48-3.92-19-5.88-28.55,0,0,0,0-.06,0h-.1Zm.78,30.74a2.61,2.61,0,0,0,0,.46q2.6,13.23,5.22,26.46s0,0,0,0l.12,0c1.64-8.88,3.28-17.78,4.95-26.84l-.72.45c-1.11.74-2.23,1.47-3.33,2.23a1.76,1.76,0,0,1-2.19,0c-1.14-.79-2.3-1.55-3.46-2.31C211.09,130.91,210.88,130.79,210.61,130.62Zm23.07-11.82.08.15,24.93-5v-.16l-22-4.14A15.49,15.49,0,0,1,233.68,118.8Zm-60.79-5.19v.17l25.07,5a15.32,15.32,0,0,1-3-9.2Z"/>
  <path class="cls-3" d="M203.61,127.53a5,5,0,0,1-.56.8c-1.29,1.34-2.59,2.66-3.89,4L189,142.64a5.22,5.22,0,0,1-.6.55,1,1,0,0,1-1.29-.08,1,1,0,0,1-.13-1.28,2.88,2.88,0,0,1,.39-.46q7.08-7.23,14.19-14.45a2.6,2.6,0,0,1,.57-.47C202.83,126.08,203.63,126.58,203.61,127.53Z"/>
  <path class="cls-3" d="M229.82,126.37a1.44,1.44,0,0,1,1,.56l3.92,4,9.31,9.66a7.16,7.16,0,0,1,.59.66,1,1,0,0,1-1.43,1.38,2.72,2.72,0,0,1-.43-.4l-13.33-13.82a2.91,2.91,0,0,1-.47-.58A1,1,0,0,1,229.82,126.37Z"/>
  <path class="cls-3" d="M200.84,97.49a1,1,0,0,1-1.4,1,2.27,2.27,0,0,1-.59-.44L187.17,86.66a2.44,2.44,0,0,1-.48-.64.94.94,0,0,1,.22-1.09,1,1,0,0,1,1.1-.18,3.62,3.62,0,0,1,.59.44l11.68,11.39C200.56,96.86,200.85,97.14,200.84,97.49Z"/>
  <path class="cls-3" d="M232.69,98.55c-.92,0-1.38-.81-1-1.46a2.3,2.3,0,0,1,.46-.57l11.25-10.88a2.59,2.59,0,0,1,.52-.42,1,1,0,0,1,1.22.17,1,1,0,0,1,.1,1.24,2.27,2.27,0,0,1-.38.44Q239.17,92.55,233.51,98A4.49,4.49,0,0,1,232.69,98.55Z"/>
  <path class="cls-2" d="M167.91,164l-.15-.08a33.82,33.82,0,0,1-6.95-5.6A13.45,13.45,0,0,1,159,156a6.38,6.38,0,0,1-.86-3.18,5.79,5.79,0,0,1,.6-2.7,3.89,3.89,0,0,1,4.38-1.93,6.44,6.44,0,0,1,4,3,5,5,0,0,0,.32.48.48.48,0,0,0,.87,0c.19-.28.36-.58.54-.87a6.05,6.05,0,0,1,4.14-2.7,3.83,3.83,0,0,1,4.09,2.3,6.31,6.31,0,0,1-.19,5.19,10.66,10.66,0,0,1-1.73,2.47,31.19,31.19,0,0,1-6.12,5.17C168.69,163.51,168.3,163.78,167.91,164Z"/>
  <path class="cls-2" d="M271.83,164c-.11-.06-.2-.08-.27-.13a57.71,57.71,0,0,1-11.93-9.64,22.58,22.58,0,0,1-3.06-4,11.1,11.1,0,0,1-1.48-5.46,10.1,10.1,0,0,1,1-4.64,6.68,6.68,0,0,1,7.53-3.32,11.12,11.12,0,0,1,6.9,5.22,6.45,6.45,0,0,0,.54.82.82.82,0,0,0,1.49,0c.33-.49.62-1,.94-1.5a10.39,10.39,0,0,1,7.12-4.64,6.62,6.62,0,0,1,7,4,10.81,10.81,0,0,1-.34,8.92,17.88,17.88,0,0,1-3,4.24,53,53,0,0,1-10.52,8.89C273.17,163.14,272.5,163.59,271.83,164Z"/>
  <path class="cls-3" d="M171.37,136.55l-.08,0a18.57,18.57,0,0,1-3.81-3.08,7.2,7.2,0,0,1-1-1.29,3.57,3.57,0,0,1-.47-1.74,3.21,3.21,0,0,1,.33-1.49,2.15,2.15,0,0,1,2.41-1.06,3.59,3.59,0,0,1,2.2,1.67c.05.09.11.18.17.27a.27.27,0,0,0,.48,0l.3-.48a3.33,3.33,0,0,1,2.27-1.48,2.12,2.12,0,0,1,2.25,1.26,3.48,3.48,0,0,1-.11,2.86,5.77,5.77,0,0,1-1,1.35,16.92,16.92,0,0,1-3.36,2.84Z"/>
  <path class="cls-3" d="M296.27,168s-.06,0-.08,0a18.25,18.25,0,0,1-3.81-3.08,7.13,7.13,0,0,1-1-1.28,3.51,3.51,0,0,1-.47-1.75,3.05,3.05,0,0,1,.33-1.48,2.14,2.14,0,0,1,2.41-1.06,3.56,3.56,0,0,1,2.2,1.67,2.33,2.33,0,0,0,.17.26.27.27,0,0,0,.48,0l.3-.48a3.34,3.34,0,0,1,2.27-1.49,2.13,2.13,0,0,1,2.25,1.27,3.46,3.46,0,0,1-.11,2.85,5.77,5.77,0,0,1-1,1.35,16.59,16.59,0,0,1-3.36,2.84Z"/>
  <path class="cls-3" d="M135.75,168s-.06,0-.08,0a18.25,18.25,0,0,1-3.81-3.08,7.13,7.13,0,0,1-1-1.28,3.61,3.61,0,0,1-.47-1.75,3.17,3.17,0,0,1,.33-1.48,2.14,2.14,0,0,1,2.41-1.06,3.56,3.56,0,0,1,2.2,1.67,2.33,2.33,0,0,0,.17.26.27.27,0,0,0,.48,0l.3-.48a3.34,3.34,0,0,1,2.27-1.49,2.13,2.13,0,0,1,2.25,1.27,3.46,3.46,0,0,1-.11,2.85,5.77,5.77,0,0,1-1,1.35,16.59,16.59,0,0,1-3.36,2.84Z"/>
  <path class="cls-2" d="M278.63,125.17l-.12-.06a25.54,25.54,0,0,1-5.29-4.27,9.81,9.81,0,0,1-1.35-1.78,5,5,0,0,1-.66-2.42,4.62,4.62,0,0,1,.46-2.06,3,3,0,0,1,3.34-1.47,5,5,0,0,1,3.06,2.32,2.82,2.82,0,0,0,.24.36.36.36,0,0,0,.66,0c.14-.21.27-.44.41-.66a4.65,4.65,0,0,1,3.16-2.06,2.92,2.92,0,0,1,3.11,1.76,4.74,4.74,0,0,1-.15,4,8.13,8.13,0,0,1-1.31,1.88,24,24,0,0,1-4.66,3.94C279.22,124.77,278.93,125,278.63,125.17Z"/>
  <path class="cls-2" d="M147.3,142.79l-.18-.09a39.77,39.77,0,0,1-8.25-6.66,15,15,0,0,1-2.1-2.78,7.6,7.6,0,0,1-1-3.77,7,7,0,0,1,.72-3.2,4.63,4.63,0,0,1,5.2-2.3,7.74,7.74,0,0,1,4.76,3.61c.12.2.24.39.37.57a.57.57,0,0,0,1,0c.23-.34.42-.69.65-1a7.16,7.16,0,0,1,4.91-3.2,4.58,4.58,0,0,1,4.86,2.74,7.48,7.48,0,0,1-.23,6.16,12.44,12.44,0,0,1-2.06,2.92,36.42,36.42,0,0,1-7.26,6.14Z"/>
</svg>
